<svg xmlns="http://www.w3.org/2000/svg" width="900" height="1200" viewBox="0 0 900 1200">
  <defs>
    <linearGradient id="bg" x1="0" y1="0" x2="0" y2="1">
      <stop offset="0" stop-color="#F0ECE4"/>
      <stop offset="1" stop-color="#e6e2da"/>
    </linearGradient>
    <linearGradient id="garment" x1="0" y1="0" x2="1" y2="1">
      <stop offset="0" stop-color="#3a485e"/>
      <stop offset="1" stop-color="#101e34"/>
    </linearGradient>
    <pattern id="weave" width="14" height="14" patternUnits="userSpaceOnUse" patternTransform="rotate(45)">
      <rect width="14" height="14" fill="none"/>
      <line x1="0" y1="0" x2="0" y2="14" stroke="#4a586e" stroke-width="1" opacity="0.35"/>
    </pattern>
  </defs>
  <rect width="900" height="1200" fill="url(#bg)"/>
  <ellipse cx="450" cy="1010" rx="300" ry="46" fill="#d6d2ca" opacity="0.5"/>
  <g transform="translate(30 180) scale(4.2)">
    <path d="M63 38 L88 28 L100 62 L112 28 L137 38 L168 72 L142 94 L136 74 L138 172 L62 172 L64 74 L58 94 L32 72 Z
         M88 28 L94 40 L100 62 L106 40 L112 28" fill="url(#garment)" stroke="#101e34" stroke-width="1.4" stroke-linejoin="round" fill-rule="evenodd"/>
    
  </g>
  <text x="450" y="1148" text-anchor="middle" font-family="Arial, Helvetica, sans-serif" font-size="26" letter-spacing="12" fill="#9a948a">NORFU STUDIO</text>
</svg>