<svg xmlns="http://www.w3.org/2000/svg" width="900" height="1200" viewBox="0 0 900 1200">
  <defs>
    <linearGradient id="bg" x1="0" y1="0" x2="0" y2="1">
      <stop offset="0" stop-color="#e8e4dc"/>
      <stop offset="1" stop-color="#dcd8d0"/>
    </linearGradient>
    <linearGradient id="garment" x1="0" y1="0" x2="1" y2="1">
      <stop offset="0" stop-color="#e7d1b3"/>
      <stop offset="1" stop-color="#bda789"/>
    </linearGradient>
    <pattern id="weave" width="14" height="14" patternUnits="userSpaceOnUse" patternTransform="rotate(45)">
      <rect width="14" height="14" fill="none"/>
      <line x1="0" y1="0" x2="0" y2="14" stroke="#f7e1c3" stroke-width="1" opacity="0.35"/>
    </pattern>
  </defs>
  <rect width="900" height="1200" fill="url(#bg)"/>
  <ellipse cx="450" cy="1030" rx="300" ry="46" fill="#d6d2ca" opacity="0.5"/>
  <g transform="translate(-70 0) scale(5.2)">
    <path d="M76 26 L100 40 L124 26 L134 58 L120 72 L142 176 L58 176 L80 72 L66 58 Z" fill="url(#garment)" stroke="#bda789" stroke-width="1.4" stroke-linejoin="round" fill-rule="evenodd"/>
    <path d="M76 26 L100 40 L124 26 L134 58 L120 72 L142 176 L58 176 L80 72 L66 58 Z" fill="url(#weave)" fill-rule="evenodd"/>
  </g>
  <text x="450" y="1148" text-anchor="middle" font-family="Arial, Helvetica, sans-serif" font-size="26" letter-spacing="12" fill="#9a948a">NORFU STUDIO</text>
</svg>