<svg xmlns="http://www.w3.org/2000/svg" width="900" height="1200" viewBox="0 0 900 1200">
  <defs>
    <linearGradient id="bg" x1="0" y1="0" x2="0" y2="1">
      <stop offset="0" stop-color="#e7e2da"/>
      <stop offset="1" stop-color="#dbd6ce"/>
    </linearGradient>
    <linearGradient id="garment" x1="0" y1="0" x2="1" y2="1">
      <stop offset="0" stop-color="#fdfbf6"/>
      <stop offset="1" stop-color="#d3d1cc"/>
    </linearGradient>
    <pattern id="weave" width="14" height="14" patternUnits="userSpaceOnUse" patternTransform="rotate(45)">
      <rect width="14" height="14" fill="none"/>
      <line x1="0" y1="0" x2="0" y2="14" stroke="#ffffff" stroke-width="1" opacity="0.35"/>
    </pattern>
  </defs>
  <rect width="900" height="1200" fill="url(#bg)"/>
  <ellipse cx="450" cy="1030" rx="300" ry="46" fill="#d5d0c8" opacity="0.5"/>
  <g transform="translate(-70 0) scale(5.2)">
    <path d="M60 40 L86 26 L100 40 L114 26 L140 40 L170 78 L144 98 L138 76 L140 178 L60 178 L62 76 L56 98 L30 78 Z" fill="url(#garment)" stroke="#d3d1cc" stroke-width="1.4" stroke-linejoin="round" fill-rule="evenodd"/>
    <path d="M60 40 L86 26 L100 40 L114 26 L140 40 L170 78 L144 98 L138 76 L140 178 L60 178 L62 76 L56 98 L30 78 Z" fill="url(#weave)" fill-rule="evenodd"/>
  </g>
  <text x="450" y="1148" text-anchor="middle" font-family="Arial, Helvetica, sans-serif" font-size="26" letter-spacing="12" fill="#9a948a">NORFU STUDIO</text>
</svg>